PathFileType	4	(X/Y/Z)	C:\Users\xlb\Desktop\20210112\20210112\bx_n_10_901.trc
DataRate	CameraRate	NumFrames	NumMarkers	Units	OrigDataRate	OrigDataStartFrame	OrigNumFrames
50.00	50.00	       6	43	mm	50.00	324	       518
Frame#	Time	Top.Head			R.Acromium			L.Acromium			Sternum			R.ASIS			L.ASIS			V.Sacral			R.Thigh.Upper			R.Thigh.Front			R.Thigh.Rear			R.Knee.Lat			R.Knee.Med			R.Shank.Upper			R.Shank.Front			R.Shank.Rear			R.Ankle.Lat			R.Midfoot.Lat			R.Toe.Lat			R.Toe.Tip			R.Toe.Med			R.Ankle.Med			R.Midfoot.Sup			R.Heel			L.Thigh.Upper			L.Thigh.Front			L.Thigh.Rear			L.Knee.Lat			L.Knee.Med			L.Shank.Upper			L.Shank.Front			L.Shank.Rear			L.Ankle.Lat			L.Midfoot.Lat			L.Toe.Lat			L.Toe.Tip			L.Toe.Med			L.Ankle.Med			L.Midfoot.Sup			L.Heel			origin1 front left			origin2 front right			origin 3 back right			origin 4 back leftt			
		X1	Y1	Z1	X2	Y2	Z2	X3	Y3	Z3	X4	Y4	Z4	X5	Y5	Z5	X6	Y6	Z6	X7	Y7	Z7	X8	Y8	Z8	X9	Y9	Z9	X10	Y10	Z10	X11	Y11	Z11	X12	Y12	Z12	X13	Y13	Z13	X14	Y14	Z14	X15	Y15	Z15	X16	Y16	Z16	X17	Y17	Z17	X18	Y18	Z18	X19	Y19	Z19	X20	Y20	Z20	X21	Y21	Z21	X22	Y22	Z22	X23	Y23	Z23	X24	Y24	Z24	X25	Y25	Z25	X26	Y26	Z26	X27	Y27	Z27	X28	Y28	Z28	X29	Y29	Z29	X30	Y30	Z30	X31	Y31	Z31	X32	Y32	Z32	X33	Y33	Z33	X34	Y34	Z34	X35	Y35	Z35	X36	Y36	Z36	X37	Y37	Z37	X38	Y38	Z38	X39	Y39	Z39	X40	Y40	Z40	X41	Y41	Z41	X42	Y42	Z42	X43	Y43	Z43	

324	6.460	-114.52411	109.50803	1005.88690	-329.25925	-62.37544	892.72888	-367.66464	237.11169	894.30603	-556.91357	72.68418	882.68396	-800.31116	-30.43600	950.59595	-792.34357	212.92964	971.64221	-935.20380	66.77650	1097.14282	-862.70166	-97.65788	854.21417	-775.17603	-24.43154	801.03876	-855.43994	-85.46196	739.33954	-835.27942	-51.01098	603.34552	-813.43555	60.35860	565.11743	-830.31323	-47.48292	554.31427	-767.27063	4.71595	524.27679	-847.85504	-58.01611	465.53180	-762.50623	-22.30808	200.14780	-648.19556	-67.75626	161.10931	-606.77118	-75.80958	155.73399	-549.03418	-26.91044	163.57928	-596.91956	26.86987	167.00795	-669.39935	51.44611	161.28308	-671.42194	51.75368	164.06190	-792.25391	38.15450	171.01073	-897.06927	269.64740	861.04669	-787.13129	192.15131	809.19727	-866.69238	267.32489	725.54443	-863.37396	242.24057	621.87274	-810.49847	133.36850	564.73108	-844.81641	238.34544	560.38751	-781.29419	196.45462	534.57458	-861.97266	253.27971	481.18311	-772.52020	230.77832	201.36960	-658.35284	298.29846	158.18800	-621.89624	305.84012	158.37282	-556.49652	253.15993	163.62181	-593.03571	218.69875	173.44952	-721.69684	158.23860	221.68810	-675.98401	175.91286	162.90259	-798.12927	183.28882	179.06075	-528.02228	303.92297	146.31456	-518.05859	-72.70188	142.80353	-875.86377	-78.65662	141.20198	-882.67657	295.83060	144.51651	
325	6.480	-114.57263	108.24248	1010.00684	-329.66418	-63.00747	899.25391	-367.50824	237.10860	900.46173	-556.47937	72.42629	886.89343	-799.52533	-30.27544	951.47919	-792.29321	212.55254	972.07483	-935.91870	66.56654	1097.01465	-863.26361	-97.61119	853.98254	-775.77332	-24.69801	800.70135	-856.12634	-85.59680	739.07275	-836.00439	-51.03447	603.14728	-813.92407	60.25784	564.93994	-830.97394	-47.38482	554.10303	-767.94543	4.66283	524.14203	-848.39685	-57.98792	465.36411	-762.65588	-22.21496	200.10242	-648.22333	-67.77540	161.07570	-606.81921	-75.84339	155.71399	-549.05914	-26.91702	163.56801	-596.94781	26.86353	167.00845	-668.63110	51.30698	160.49005	-671.40393	51.80872	163.96918	-792.31775	38.20347	170.97212	-896.97925	269.20285	861.06531	-787.19446	191.85565	809.01917	-866.91467	267.11548	725.53320	-863.70648	242.22202	621.84668	-811.02258	133.30969	564.63861	-845.19263	238.34842	560.31165	-781.68756	196.39085	534.54626	-862.19733	253.41612	481.10278	-772.54095	230.74223	201.36020	-658.35663	298.29810	158.18710	-621.90558	305.86874	158.36214	-556.50830	253.14757	163.60515	-593.02698	218.66196	173.44788	-721.77649	158.26147	221.74667	-676.01093	175.91718	162.92247	-798.21051	183.29463	179.06619	-528.03101	303.92831	146.31631	-518.06757	-72.71927	142.80975	-875.86053	-78.65113	141.22125	-882.61169	295.92929	144.57600	
326	6.500	-114.60059	106.94533	1014.62933	-330.22650	-63.65326	906.36359	-367.38510	237.11433	907.26556	-556.02130	72.19092	891.39948	-798.71033	-30.11392	952.48151	-792.25464	212.19147	972.64844	-936.74744	66.33013	1096.87207	-863.78217	-97.58083	853.77124	-776.32568	-24.98972	800.38727	-856.78278	-85.75269	738.82556	-836.70795	-51.06277	602.95306	-814.38525	60.16183	564.77673	-831.61139	-47.28199	553.89374	-768.59332	4.61236	524.02161	-848.91559	-57.98282	465.23611	-762.81049	-22.12021	200.07257	-648.25153	-67.79754	161.03745	-606.87659	-75.87979	155.70274	-549.07983	-26.92940	163.55045	-596.96771	26.86506	167.00951	-668.70374	51.35464	160.58220	-671.38776	51.86108	163.87820	-792.37860	38.26532	170.94286	-896.85742	268.64636	861.09473	-787.20947	191.47165	808.86340	-867.10034	266.81030	725.55255	-864.03558	242.15565	621.84546	-811.54541	133.20473	564.56641	-845.57312	238.29118	560.23260	-782.08252	196.27902	534.52905	-862.44647	253.51617	481.05399	-772.57031	230.68111	201.36151	-658.36285	298.28711	158.19099	-621.92377	305.88385	158.36401	-556.53021	253.13664	163.58289	-593.02972	218.62511	173.44247	-721.85413	158.24551	221.80836	-676.03638	175.91353	162.94406	-798.28497	183.28835	179.06885	-528.03687	303.93274	146.31146	-518.06879	-72.74052	142.81308	-875.86096	-78.64908	141.24603	-882.55396	296.02301	144.63115	
327	6.520	-114.61993	105.62590	1019.95770	-330.95035	-64.31179	914.06592	-367.29373	237.12976	914.72906	-555.53864	71.97924	896.20398	-797.86517	-29.95260	953.60632	-792.23334	211.86919	973.39178	-937.69702	66.07587	1096.70410	-864.23962	-97.56567	853.59967	-776.80652	-25.28846	800.11688	-857.37518	-85.90390	738.60632	-837.35498	-51.08812	602.76770	-814.79053	60.08125	564.64117	-832.19409	-47.17817	553.69415	-769.16028	4.58014	523.92670	-849.38165	-57.98823	465.15228	-762.96033	-22.02621	200.06161	-648.28180	-67.82220	160.99756	-606.94055	-75.92047	155.69719	-549.09039	-26.94977	163.52425	-596.97382	26.87252	167.01112	-670.18018	51.71278	162.14479	-671.37384	51.90933	163.79037	-792.42804	38.34522	170.92758	-896.70935	267.99570	861.13788	-787.17712	191.01228	808.73975	-867.23682	266.41699	725.60608	-864.34894	242.03906	621.86981	-812.04639	133.05681	564.51489	-845.94293	238.18022	560.16138	-782.46405	196.12776	534.52423	-862.71240	253.58200	481.03815	-772.60638	230.60042	201.37390	-658.37274	298.26425	158.19899	-621.95410	305.88489	158.37796	-556.56134	253.12762	163.55713	-593.04669	218.59076	173.43156	-721.92462	158.18846	221.87163	-676.06097	175.90454	162.96718	-798.35278	183.26633	179.06998	-528.03656	303.93466	146.29910	-518.05750	-72.76385	142.80963	-875.86566	-78.64967	141.27126	-882.50934	296.10165	144.67590	
328	6.540	-114.66180	104.29290	1026.23706	-331.83972	-64.98212	922.36871	-367.22955	237.15630	922.86432	-555.03058	71.79245	901.30872	-796.98865	-29.79264	954.85712	-792.23376	211.59599	974.32062	-938.77637	65.81564	1096.49500	-864.63757	-97.56171	853.47748	-777.21161	-25.57625	799.89600	-857.88898	-86.02393	738.41260	-837.93256	-51.10318	602.58875	-815.12970	60.02122	564.53888	-832.71228	-47.07911	553.50775	-769.62012	4.57001	523.85785	-849.78394	-57.98585	465.10248	-763.09814	-21.93436	200.06808	-648.31720	-67.84907	160.95859	-607.00830	-75.96983	155.69493	-549.08502	-26.97837	163.48708	-596.96350	26.88114	167.01488	-673.51068	52.48018	165.64296	-671.36298	51.95219	163.70706	-792.45935	38.44774	170.92825	-896.54504	267.28036	861.19403	-787.10901	190.49750	808.65015	-867.32336	265.95270	725.69012	-864.64282	241.87575	621.91461	-812.51465	132.87450	564.47919	-846.29602	238.02953	560.10718	-782.82642	195.95122	534.52936	-862.98956	253.61815	481.04984	-772.64825	230.50803	201.39645	-658.38776	298.23041	158.20903	-621.99805	305.87357	158.40199	-556.60095	253.11975	163.53125	-593.07959	218.56163	173.41566	-721.98383	158.09425	221.93443	-676.08795	175.89485	162.99139	-798.41797	183.22534	179.07190	-528.02728	303.93317	146.27946	-518.03082	-72.78722	142.79619	-875.87488	-78.65065	141.29048	-882.48090	296.15878	144.70685	
329	6.560	-114.77527	102.95448	1033.72852	-332.89847	-65.66328	931.27979	-367.18402	237.19521	931.68439	-554.49646	71.63174	906.71570	-796.07941	-29.63507	956.23682	-792.25769	211.36896	975.43823	-939.99414	65.56302	1096.22729	-864.99316	-97.56274	853.40344	-777.55688	-25.83731	799.71588	-858.32922	-86.09221	738.23395	-838.44958	-51.10378	602.40784	-815.41162	59.97967	564.46698	-833.17664	-46.99278	553.33380	-769.97766	4.57291	523.80493	-850.13013	-57.95713	465.06461	-763.22028	-21.84518	200.08539	-648.36096	-67.87864	160.92253	-607.07739	-76.03387	155.69475	-549.05933	-27.01328	163.43733	-596.93719	26.88429	167.02434	-678.88458	53.69759	171.26881	-671.35620	51.98884	163.63008	-792.46863	38.57508	170.94363	-896.37488	266.53802	861.25867	-787.02148	189.95337	808.59033	-867.36798	265.44226	725.79492	-864.91931	241.67619	621.97058	-812.94720	132.67244	564.45056	-846.63336	237.85861	560.07629	-783.17139	195.76640	534.53864	-863.27374	253.63014	481.07874	-772.69568	230.41302	201.42676	-658.40985	298.18826	158.21817	-622.05463	305.85355	158.43300	-556.64917	253.11124	163.50940	-593.12848	218.53992	173.39766	-722.02887	157.97345	221.99425	-676.12189	175.88960	163.01610	-798.48682	183.16393	179.07715	-528.00745	303.92856	146.25433	-517.98907	-72.80845	142.77150	-875.88867	-78.64879	141.29732	-882.46851	296.19254	144.72359	
